HIERARCHY
ROOT joint_Root
{
	OFFSET 0.0 0.0 0.0
	CHANNELS 6 Xposition Yposition Zposition Zrotation Xrotation Yrotation 
	JOINT Hips
	{
		OFFSET -17.1583 93.1646 452.98
		CHANNELS 6 Xposition Yposition Zposition Zrotation Xrotation Yrotation 
		JOINT Spine
		{
			OFFSET 15.7357 0.0 0.0
			CHANNELS 6 Xposition Yposition Zposition Zrotation Xrotation Yrotation 
			JOINT Chest
			{
				OFFSET 8.98455 -0.406207 0.0
				CHANNELS 6 Xposition Yposition Zposition Zrotation Xrotation Yrotation 
				JOINT Neck
				{
					OFFSET 16.3773 0.0 0.0
					CHANNELS 6 Xposition Yposition Zposition Zrotation Xrotation Yrotation 
					JOINT Head
					{
						OFFSET 6.45672 0.0 0.0
						CHANNELS 6 Xposition Yposition Zposition Zrotation Xrotation Yrotation 
						End Site
						{
							OFFSET 0.0 0.0 0.0
						}
					}
				}
				JOINT Shoulder_L
				{
					OFFSET 12.9942 -0.242716 4.98039
					CHANNELS 6 Xposition Yposition Zposition Zrotation Xrotation Yrotation 
					JOINT UpperArm_L
					{
						OFFSET 5.34809 0.0 0.0
						CHANNELS 6 Xposition Yposition Zposition Zrotation Xrotation Yrotation 
						JOINT LowerArm_L
						{
							OFFSET 24.3286 1.87007e-05 0.0
							CHANNELS 6 Xposition Yposition Zposition Zrotation Xrotation Yrotation 
							JOINT Hand_L
							{
								OFFSET 22.2916 0.0 0.0
								CHANNELS 6 Xposition Yposition Zposition Zrotation Xrotation Yrotation 
								End Site
								{
									OFFSET 0.0 0.0 0.0
								}
							}
						}
					}
				}
				JOINT Shoulder_R
				{
					OFFSET 12.9945 -0.242716 -4.98039
					CHANNELS 6 Xposition Yposition Zposition Zrotation Xrotation Yrotation 
					JOINT UpperArm_R
					{
						OFFSET -5.34813 0.0 0.0
						CHANNELS 6 Xposition Yposition Zposition Zrotation Xrotation Yrotation 
						JOINT LowerArm_R
						{
							OFFSET -24.3289 0.000322201 0.0
							CHANNELS 6 Xposition Yposition Zposition Zrotation Xrotation Yrotation 
							JOINT Hand_R
							{
								OFFSET -22.2915 -0.000108084 0.0
								CHANNELS 6 Xposition Yposition Zposition Zrotation Xrotation Yrotation 
								End Site
								{
									OFFSET 0.0 0.0 0.0
								}
							}
						}
					}
				}
			}
		}
		JOINT UpperLeg_L
		{
			OFFSET -2.19248 -6.46944 0.0
			CHANNELS 6 Xposition Yposition Zposition Zrotation Xrotation Yrotation 
			JOINT LowerLeg_L
			{
				OFFSET 39.0811 0.0 -1.23785e-05
				CHANNELS 6 Xposition Yposition Zposition Zrotation Xrotation Yrotation 
				JOINT Foot_L
				{
					OFFSET 40.9854 0.0 -1.26872e-05
					CHANNELS 6 Xposition Yposition Zposition Zrotation Xrotation Yrotation 
					JOINT Toes_L
					{
						OFFSET 11.7543 0.0 0.0
						CHANNELS 6 Xposition Yposition Zposition Zrotation Xrotation Yrotation 
						End Site
						{
							OFFSET 0.0 0.0 0.0
						}
					}
				}
			}
		}
		JOINT UpperLeg_R
		{
			OFFSET -2.19251 6.46944 0.0
			CHANNELS 6 Xposition Yposition Zposition Zrotation Xrotation Yrotation 
			JOINT LowerLeg_R
			{
				OFFSET -39.0811 -0.00228153 -0.0401928
				CHANNELS 6 Xposition Yposition Zposition Zrotation Xrotation Yrotation 
				JOINT Foot_R
				{
					OFFSET -40.9854 0.0 0.0
					CHANNELS 6 Xposition Yposition Zposition Zrotation Xrotation Yrotation 
					JOINT Toes_R
					{
						OFFSET -11.7543 0.0 0.0
						CHANNELS 6 Xposition Yposition Zposition Zrotation Xrotation Yrotation 
						End Site
						{
							OFFSET 0.0 0.0 0.0
						}
					}
				}
			}
		}
	}
}
MOTION
Frames:	9
Frame Time:	0.0333333
0.000000 0.000000 0.000000 0.000000 0.000000 -0.000000 -0.569502 92.597600 3.314480 86.937500 -0.632878 3.471060 15.735700 0.000005 -0.000001 98.964700 87.083500 -105.536000 8.984550 -0.406207 -0.000000 -1.886690 1.460720 -13.116000 16.377300 -0.000001 -0.000001 -0.700090 -0.521275 -7.449610 6.456720 -0.000001 -0.000000 2.403520 0.997712 -13.648400 12.994200 -0.242716 4.980390 -92.789200 8.455850 -71.669300 5.348090 -0.000007 -0.000001 -56.967100 3.140250 1.774310 24.328600 0.000019 0.000005 13.548300 27.058100 -27.911400 22.291600 -0.000001 0.000005 1.718860 4.846850 10.422000 12.994500 -0.242716 -4.980390 93.867700 -8.184520 -64.597100 -5.348130 -0.000001 -0.000004 -34.641000 -61.685800 -62.885400 -24.328900 0.000322 -0.000009 -3.179870 -10.330500 -17.208000 -22.291500 -0.000108 -0.000004 48.193600 5.448280 -4.578330 -2.192480 -6.469440 -0.000000 -172.740000 -4.642900 2.485790 39.081100 -0.000007 -0.000012 0.011028 -0.033622 18.159000 40.985400 -0.000006 -0.000013 -0.022806 10.751900 -71.270400 11.754300 -0.000000 0.000003 -0.002111 0.197722 -8.554870 -2.192510 6.469440 -0.000001 177.278000 7.624550 -174.157000 -39.081100 -0.002282 -0.040193 -0.018360 0.101367 12.080500 -40.985400 0.000008 0.000006 -9.062180 8.558940 -68.107700 -11.754300 -0.000006 -0.000006 -0.009651 0.268679 -5.658380
0.000000 0.000000 0.000000 0.000000 0.000000 -0.000000 -0.533944 92.599400 3.303210 86.932300 -0.628040 3.467430 15.735700 0.000005 -0.000001 98.742300 87.075600 -105.279000 8.984550 -0.406207 -0.000000 -1.869810 1.436940 -13.049100 16.377300 -0.000001 -0.000001 -0.647013 -0.535638 -7.357560 6.456720 -0.000001 -0.000000 2.400980 0.984660 -13.559800 12.994200 -0.242716 4.980390 -92.782600 8.410220 -71.617600 5.348090 -0.000007 -0.000001 -56.745800 3.092910 1.779770 24.328600 0.000019 0.000005 13.718100 26.832500 -28.404500 22.291600 -0.000001 0.000005 1.833830 4.853910 10.285200 12.994500 -0.242716 -4.980390 93.845900 -8.126500 -64.566300 -5.348130 -0.000001 -0.000004 -34.134600 -61.421600 -62.350600 -24.328900 0.000322 -0.000009 -3.187360 -10.521100 -16.955000 -22.291500 -0.000108 -0.000004 48.186000 5.447420 -4.547530 -2.192480 -6.469440 -0.000000 -172.764000 -4.676280 2.466940 39.081100 -0.000007 -0.000012 0.012634 -0.038443 18.192700 40.985400 -0.000006 -0.000013 0.005901 10.741300 -71.338300 11.754300 -0.000000 0.000003 -0.002176 0.198524 -8.522280 -2.192510 6.469440 -0.000001 177.270000 7.586350 -174.149000 -39.081100 -0.002282 -0.040193 -0.018450 0.102092 12.045700 -40.985400 0.000008 0.000006 -9.071760 8.503830 -68.126800 -11.754300 -0.000006 -0.000006 -0.009939 0.270849 -5.569630
0.000000 0.000000 0.000000 0.000000 0.000000 -0.000000 -0.503143 92.594700 3.299900 86.916700 -0.623104 3.455870 15.735700 0.000005 -0.000001 98.602500 87.055500 -105.105000 8.984550 -0.406207 -0.000000 -1.829410 1.423700 -12.980800 16.377300 -0.000001 -0.000001 -0.594962 -0.595810 -7.283690 6.456720 -0.000001 -0.000000 2.408520 0.914636 -13.473400 12.994200 -0.242716 4.980390 -92.761900 8.349230 -71.622400 5.348090 -0.000007 -0.000001 -56.556900 3.034930 1.662740 24.328600 0.000019 0.000005 13.772500 26.683600 -28.627200 22.291600 -0.000001 0.000005 1.811300 4.856070 10.243000 12.994500 -0.242716 -4.980390 93.835500 -8.092880 -64.534900 -5.348130 -0.000001 -0.000004 -33.795100 -61.261900 -61.893500 -24.328900 0.000322 -0.000009 -3.153410 -10.528600 -16.773100 -22.291500 -0.000108 -0.000004 48.138800 5.438540 -4.234770 -2.192480 -6.469440 -0.000000 -172.775000 -4.620680 2.409340 39.081100 -0.000007 -0.000012 0.012159 -0.036885 18.245000 40.985400 -0.000006 -0.000013 0.032087 10.731700 -71.245700 11.754300 -0.000000 0.000003 -0.001848 0.194428 -8.688860 -2.192510 6.469440 -0.000001 177.277000 7.530910 -174.183000 -39.081100 -0.002282 -0.040193 -0.018361 0.101548 12.060200 -40.985400 0.000008 0.000006 -9.107160 8.472620 -68.070900 -11.754300 -0.000006 -0.000006 -0.009767 0.269554 -5.622600
0.000000 0.000000 0.000000 0.000000 0.000000 -0.000000 -0.470274 92.598500 3.291320 86.951200 -0.618903 3.479740 15.735700 0.000005 -0.000001 98.201000 87.043900 -104.674000 8.984550 -0.406207 -0.000000 -1.803280 1.382260 -12.922200 16.377300 -0.000001 -0.000001 -0.497703 -0.638790 -7.268420 6.456720 -0.000001 -0.000000 2.380630 0.858282 -13.407800 12.994200 -0.242716 4.980390 -92.761600 8.328530 -71.581500 5.348090 -0.000007 -0.000001 -56.392400 2.949420 1.626510 24.328600 0.000019 0.000005 13.922500 26.694600 -28.890200 22.291600 -0.000001 0.000005 1.843950 4.856290 10.238800 12.994500 -0.242716 -4.980390 93.824100 -8.066960 -64.530600 -5.348130 -0.000001 -0.000004 -34.110800 -61.217200 -62.046300 -24.328900 0.000322 -0.000009 -3.184670 -10.693200 -16.687100 -22.291500 -0.000108 -0.000004 47.962000 5.439460 -4.267160 -2.192480 -6.469440 -0.000000 -172.844000 -4.600360 2.453520 39.081100 -0.000007 -0.000012 0.013864 -0.042112 18.222700 40.985400 -0.000006 -0.000013 0.045051 10.669800 -71.337500 11.754300 -0.000000 0.000003 -0.002195 0.198759 -8.512730 -2.192510 6.469440 -0.000001 177.222000 7.484440 -174.145000 -39.081100 -0.002282 -0.040193 -0.018584 0.102854 12.030200 -40.985400 0.000008 0.000006 -9.103020 8.429440 -68.092200 -11.754300 -0.000006 -0.000006 -0.009723 0.269225 -5.636060
0.000000 0.000000 0.000000 0.000000 0.000000 -0.000000 -0.449295 92.594200 3.280910 86.956700 -0.640741 3.416500 15.735700 0.000005 -0.000001 97.982400 87.051400 -104.416000 8.984550 -0.406207 -0.000000 -1.817460 1.355400 -12.844700 16.377300 -0.000001 -0.000001 -0.361578 -0.681007 -7.249120 6.456720 -0.000001 -0.000000 2.297750 0.822153 -13.368200 12.994200 -0.242716 4.980390 -92.747800 8.289780 -71.588500 5.348090 -0.000007 -0.000001 -56.302200 2.839230 1.450880 24.328600 0.000019 0.000005 13.850500 26.720200 -28.738400 22.291600 -0.000001 0.000005 1.922820 4.856330 10.238000 12.994500 -0.242716 -4.980390 93.807000 -8.028640 -64.525400 -5.348130 -0.000001 -0.000004 -34.833200 -61.250100 -62.542800 -24.328900 0.000322 -0.000009 -3.189680 -10.671300 -16.743800 -22.291500 -0.000108 -0.000004 47.955800 5.432150 -4.013120 -2.192480 -6.469440 -0.000000 -172.869000 -4.605160 2.351590 39.081100 -0.000007 -0.000012 0.013637 -0.041328 18.261400 40.985400 -0.000006 -0.000013 0.063474 10.671700 -71.248900 11.754300 -0.000000 0.000003 -0.001911 0.195223 -8.656520 -2.192510 6.469440 -0.000001 177.242000 7.323930 -174.267000 -39.081100 -0.002282 -0.040193 -0.017968 0.099260 12.113100 -40.985400 0.000008 0.000006 -9.168340 8.307470 -68.122100 -11.754300 -0.000006 -0.000006 -0.009946 0.270901 -5.567510
0.000000 0.000000 0.000000 0.000000 0.000000 -0.000000 -0.435113 92.595600 3.294840 86.982300 -0.707870 3.512910 15.735700 0.000005 -0.000001 97.701100 87.015000 -104.088000 8.984550 -0.406207 -0.000000 -1.743930 1.328490 -12.751900 16.377300 -0.000001 -0.000001 -0.235586 -0.693199 -7.285900 6.456720 -0.000001 -0.000000 2.299240 0.805104 -13.365800 12.994200 -0.242716 4.980390 -92.737600 8.226720 -71.522300 5.348090 -0.000007 -0.000001 -56.332100 2.806840 1.236870 24.328600 0.000019 0.000005 13.762400 26.854100 -28.467000 22.291600 -0.000001 0.000005 2.029410 4.847080 10.417400 12.994500 -0.242716 -4.980390 93.799500 -8.016700 -64.536400 -5.348130 -0.000001 -0.000004 -35.823200 -61.252400 -63.402200 -24.328900 0.000322 -0.000009 -3.356260 -11.193400 -16.804700 -22.291500 -0.000108 -0.000004 47.874700 5.425570 -3.787560 -2.192480 -6.469440 -0.000000 -172.886000 -4.686960 2.512840 39.081100 -0.000007 -0.000012 0.013806 -0.041977 18.205800 40.985400 -0.000006 -0.000013 0.078149 10.704100 -71.313400 11.754300 -0.000000 0.000003 -0.001925 0.195407 -8.649020 -2.192510 6.469440 -0.000001 177.204000 7.194140 -174.178000 -39.081100 -0.002282 -0.040193 -0.018842 0.103287 12.118300 -40.985400 0.000008 0.000006 -9.273060 8.235580 -68.103900 -11.754300 -0.000006 -0.000006 -0.009665 0.268782 -5.654180
0.000000 0.000000 0.000000 0.000000 0.000000 -0.000000 -0.437306 92.590800 3.282700 87.007300 -0.728626 3.519310 15.735700 0.000005 -0.000001 97.389300 86.981300 -103.731000 8.984550 -0.406207 -0.000000 -1.675480 1.297420 -12.661600 16.377300 -0.000001 -0.000001 -0.118705 -0.696839 -7.317590 6.456720 -0.000001 -0.000000 2.267930 0.785292 -13.358900 12.994200 -0.242716 4.980390 -92.698300 8.095400 -71.496000 5.348090 -0.000007 -0.000001 -56.563100 2.474200 0.786604 24.328600 0.000019 0.000005 13.514800 27.095100 -27.820800 22.291600 -0.000001 0.000005 1.962650 4.845350 10.450600 12.994500 -0.242716 -4.980390 93.794800 -8.004370 -64.529900 -5.348130 -0.000001 -0.000004 -36.338400 -61.258700 -63.817400 -24.328900 0.000322 -0.000009 -3.655940 -12.136900 -16.899600 -22.291500 -0.000108 -0.000004 47.527300 5.422000 -3.665820 -2.192480 -6.469440 -0.000000 -172.910000 -4.683940 2.499220 39.081100 -0.000007 -0.000012 0.013014 -0.039541 18.217400 40.985400 -0.000006 -0.000013 0.070792 10.677200 -71.231800 11.754300 -0.000000 0.000003 -0.001791 0.193697 -8.718580 -2.192510 6.469440 -0.000001 177.221000 7.023360 -174.252000 -39.081100 -0.002282 -0.040193 -0.018323 0.099730 12.252400 -40.985400 0.000008 0.000006 -9.192530 8.091860 -68.236400 -11.754300 -0.000006 -0.000006 -0.010123 0.272220 -5.513570
0.000000 0.000000 0.000000 0.000000 0.000000 -0.000000 -0.448100 92.596300 3.272370 87.027300 -0.747938 3.530560 15.735700 0.000005 -0.000001 97.292600 86.943600 -103.585000 8.984550 -0.406207 -0.000000 -1.600840 1.288810 -12.565000 16.377300 -0.000001 -0.000001 0.001194 -0.703451 -7.337340 6.456720 -0.000001 -0.000000 2.258860 0.788777 -13.407800 12.994200 -0.242716 4.980390 -92.668900 8.021050 -71.527100 5.348090 -0.000007 -0.000001 -56.761000 2.316580 0.511033 24.328600 0.000019 0.000005 13.391900 27.199400 -27.513600 22.291600 -0.000001 0.000005 1.911390 4.839090 10.571900 12.994500 -0.242716 -4.980390 93.809200 -8.031530 -64.520000 -5.348130 -0.000001 -0.000004 -36.859500 -61.277800 -64.181400 -24.328900 0.000322 -0.000009 -3.710020 -12.367600 -16.838900 -22.291500 -0.000108 -0.000004 47.245000 5.418310 -3.542520 -2.192480 -6.469440 -0.000000 -172.912000 -4.758810 2.536840 39.081100 -0.000007 -0.000012 0.012759 -0.038885 18.165500 40.985400 -0.000006 -0.000013 0.065067 10.722900 -71.236000 11.754300 -0.000000 0.000003 -0.001900 0.195092 -8.661840 -2.192510 6.469440 -0.000001 177.223000 6.927250 -174.250000 -39.081100 -0.002282 -0.040193 -0.018533 0.100740 12.247600 -40.985400 0.000008 0.000006 -9.248410 8.006350 -68.219100 -11.754300 -0.000006 -0.000006 -0.009934 0.270810 -5.571220
0.000000 0.000000 0.000000 0.000000 0.000000 -0.000000 -0.472109 92.597800 3.245740 87.054800 -0.693065 3.525560 15.735700 0.000005 -0.000001 96.891500 86.910500 -103.143000 8.984550 -0.406207 -0.000000 -1.532940 1.247250 -12.483700 16.377300 -0.000001 -0.000001 0.083688 -0.686878 -7.379530 6.456720 -0.000001 -0.000000 2.314370 0.782120 -13.349500 12.994200 -0.242716 4.980390 -92.633300 7.924190 -71.551100 5.348090 -0.000007 -0.000001 -56.996300 2.298810 0.340901 24.328600 0.000019 0.000005 13.475700 27.338500 -27.555000 22.291600 -0.000001 0.000005 1.927950 4.836700 10.617900 12.994500 -0.242716 -4.980390 93.822800 -8.067590 -64.539400 -5.348130 -0.000001 -0.000004 -37.134800 -61.322500 -64.302100 -24.328900 0.000322 -0.000009 -3.719100 -12.522400 -16.684000 -22.291500 -0.000108 -0.000004 46.989500 5.416150 -3.469450 -2.192480 -6.469440 -0.000000 -172.932000 -4.689910 2.505140 39.081100 -0.000007 -0.000012 0.012306 -0.037530 18.154300 40.985400 -0.000006 -0.000013 0.047136 10.724400 -71.196500 11.754300 -0.000000 0.000003 -0.001931 0.195473 -8.646340 -2.192510 6.469440 -0.000001 177.232000 6.939750 -174.309000 -39.081100 -0.002282 -0.040193 -0.017718 0.096277 12.334500 -40.985400 0.000008 0.000006 -9.122040 7.943090 -68.315700 -11.754300 -0.000006 -0.000006 -0.010132 0.272292 -5.510600
